<svg width="174" height="48" viewBox="0 0 174 48" fill="none" xmlns="http://www.w3.org/2000/svg">
<g filter="url(#filter0_d_17_38)">
<rect x="4" width="166" height="40" rx="20" fill="url(#paint0_linear_17_38)"/>
</g>
<path d="M74.1801 27.512C72.6601 27.512 71.5321 27.272 70.7961 26.792C70.0761 26.296 69.7161 25.376 69.7161 24.032C69.7161 23.76 69.7321 23.432 69.7641 23.048C69.8121 22.664 69.8761 22.2 69.9561 21.656C70.0841 20.872 70.1801 20.176 70.2441 19.568C70.3081 18.944 70.3401 18.264 70.3401 17.528C70.3401 17.048 70.3241 16.584 70.2921 16.136C70.2761 15.688 70.2361 15.264 70.1721 14.864C69.9321 14.912 69.7721 14.936 69.6921 14.936C69.5641 14.936 69.4761 14.912 69.4281 14.864C69.3801 14.8 69.3561 14.688 69.3561 14.528C69.3561 14.192 69.3961 13.864 69.4761 13.544C69.5561 13.208 69.6681 12.936 69.8121 12.728C70.0841 12.344 70.5001 12.12 71.0601 12.056C71.4921 12.008 72.0201 11.96 72.6441 11.912C73.2841 11.864 73.9321 11.832 74.5881 11.816C75.2601 11.784 75.8601 11.768 76.3881 11.768C77.8601 11.768 78.7321 11.8 79.0041 11.864C79.4201 11.928 79.6281 12.152 79.6281 12.536C79.6281 13.016 79.4601 13.456 79.1241 13.856C78.9481 14.096 78.7721 14.272 78.5961 14.384C78.4201 14.48 78.1721 14.52 77.8521 14.504C77.1481 14.456 76.5321 14.424 76.0041 14.408C75.4761 14.392 75.1081 14.384 74.9001 14.384C74.5321 14.384 74.1481 14.392 73.7481 14.408C73.3641 14.424 72.9721 14.448 72.5721 14.48C72.5721 15.04 72.5481 15.64 72.5001 16.28C72.4521 16.92 72.3881 17.592 72.3081 18.296C73.0441 18.248 73.8761 18.216 74.8041 18.2C75.7321 18.168 76.5561 18.152 77.2761 18.152C77.5961 18.152 77.8121 18.184 77.9241 18.248C78.0521 18.312 78.1161 18.48 78.1161 18.752C78.1161 19.008 78.0441 19.296 77.9001 19.616C77.7721 19.92 77.5961 20.184 77.3721 20.408C77.2761 20.504 77.1721 20.584 77.0601 20.648C76.9481 20.696 76.7961 20.712 76.6041 20.696C75.9161 20.664 75.1321 20.64 74.2521 20.624C73.3881 20.608 72.6281 20.608 71.9721 20.624C71.9081 20.992 71.8601 21.328 71.8281 21.632C71.7961 21.936 71.7801 22.208 71.7801 22.448C71.7801 23.328 72.0041 23.944 72.4521 24.296C72.9001 24.648 73.6361 24.824 74.6601 24.824C75.2841 24.824 75.8841 24.768 76.4601 24.656C77.0521 24.544 77.6521 24.336 78.2601 24.032C78.4841 23.904 78.6521 23.84 78.7641 23.84C78.9401 23.84 79.1081 23.968 79.2681 24.224C79.4441 24.464 79.5321 24.728 79.5321 25.016C79.5321 25.368 79.3961 25.704 79.1241 26.024C78.8681 26.328 78.5241 26.592 78.0921 26.816C77.5961 27.04 77.0041 27.208 76.3161 27.32C75.6281 27.448 74.9161 27.512 74.1801 27.512ZM82.2653 27.464C82.0893 27.464 81.9213 27.408 81.7613 27.296C81.6013 27.2 81.5373 27.064 81.5693 26.888C81.8093 25.608 82.0093 24.312 82.1693 23C82.3453 21.672 82.4333 20.336 82.4333 18.992C82.4333 17.808 82.3933 16.736 82.3133 15.776C82.2333 14.816 81.9773 13.896 81.5453 13.016C81.4653 12.84 81.4013 12.688 81.3533 12.56C81.3053 12.432 81.2813 12.312 81.2813 12.2C81.2813 11.896 81.4573 11.6 81.8093 11.312C82.1613 11.024 82.5373 10.88 82.9373 10.88C83.5133 10.88 83.9053 11.232 84.1133 11.936C84.3213 12.64 84.4253 13.68 84.4253 15.056C84.4253 16.704 84.3293 18.144 84.1373 19.376C83.9453 20.592 83.7773 21.52 83.6333 22.16L83.7293 22.208C84.0493 21.424 84.4573 20.672 84.9533 19.952C85.4493 19.216 86.0173 18.608 86.6573 18.128C87.3133 17.648 88.0253 17.408 88.7933 17.408C89.5453 17.408 90.1213 17.632 90.5213 18.08C90.9373 18.528 91.1453 19.064 91.1453 19.688C91.1453 20.424 90.8813 21.08 90.3533 21.656C89.8253 22.232 89.1373 22.712 88.2893 23.096C88.4973 23.64 88.7933 24.072 89.1773 24.392C89.5613 24.696 90.0493 24.848 90.6413 24.848C90.8333 24.848 90.9933 24.832 91.1213 24.8C91.3293 24.752 91.4333 24.952 91.4333 25.4C91.4333 25.656 91.3853 25.944 91.2893 26.264C91.1933 26.584 91.0013 26.864 90.7133 27.104C90.4413 27.328 90.0253 27.44 89.4653 27.44C88.7133 27.44 88.0973 27.224 87.6173 26.792C87.1533 26.344 86.7853 25.8 86.5133 25.16C86.2573 24.504 86.0573 23.856 85.9133 23.216C85.7853 22.624 85.9853 22.312 86.5133 22.28C87.0733 22.216 87.5453 22.048 87.9293 21.776C88.3133 21.504 88.5053 21.144 88.5053 20.696C88.5053 20.184 88.2573 19.928 87.7613 19.928C87.4413 19.928 87.1133 20.048 86.7773 20.288C86.4573 20.512 86.1533 20.784 85.8653 21.104C85.5933 21.424 85.3693 21.736 85.1933 22.04C84.9533 22.456 84.7453 22.864 84.5693 23.264C84.3933 23.664 84.2493 24.064 84.1373 24.464V25.424C84.1373 26.016 83.9613 26.504 83.6093 26.888C83.2733 27.272 82.8253 27.464 82.2653 27.464ZM95.1293 27.44C94.6653 27.44 94.3213 27.312 94.0973 27.056C93.8733 26.8 93.7613 26.352 93.7613 25.712C93.7613 25.408 93.7853 25.016 93.8333 24.536C93.8813 24.056 93.9373 23.536 94.0013 22.976C94.0973 22.288 94.1773 21.568 94.2413 20.816C94.3213 20.064 94.3613 19.344 94.3613 18.656C94.3613 17.68 94.3133 16.672 94.2173 15.632C94.1373 14.576 93.8973 13.656 93.4973 12.872C93.3533 12.552 93.2813 12.32 93.2813 12.176C93.2813 11.968 93.3693 11.768 93.5453 11.576C93.7373 11.384 93.9693 11.224 94.2413 11.096C94.5133 10.952 94.7773 10.88 95.0333 10.88C95.4493 10.88 95.7613 11.072 95.9693 11.456C96.1773 11.824 96.3133 12.336 96.3773 12.992C96.4413 13.632 96.4733 14.368 96.4733 15.2C96.4733 16.464 96.4173 17.56 96.3053 18.488C96.2093 19.416 96.1133 20.232 96.0173 20.936C95.9533 21.4 95.8893 21.84 95.8253 22.256C95.7773 22.672 95.7533 23.048 95.7533 23.384C95.7533 23.944 95.8413 24.352 96.0173 24.608C96.2093 24.848 96.5133 25.088 96.9293 25.328C97.0413 25.392 97.1213 25.456 97.1693 25.52C97.2333 25.568 97.2653 25.648 97.2653 25.76C97.2653 25.888 97.2013 26.088 97.0733 26.36C96.9453 26.632 96.7213 26.88 96.4013 27.104C96.0973 27.328 95.6733 27.44 95.1293 27.44ZM102.582 27.512C101.366 27.512 100.414 27.168 99.7262 26.48C99.0542 25.776 98.7182 24.8 98.7182 23.552C98.7182 22.416 98.9662 21.384 99.4622 20.456C99.9582 19.528 100.622 18.792 101.454 18.248C102.302 17.688 103.23 17.408 104.238 17.408C105.198 17.408 105.966 17.648 106.542 18.128C107.118 18.592 107.406 19.216 107.406 20C107.406 20.624 107.214 21.2 106.83 21.728C106.446 22.256 105.934 22.68 105.294 23C104.654 23.304 103.942 23.456 103.158 23.456C102.198 23.456 101.414 23.24 100.806 22.808C100.822 23.544 101.07 24.136 101.55 24.584C102.046 25.032 102.678 25.256 103.446 25.256C103.91 25.256 104.382 25.176 104.862 25.016C105.358 24.84 105.782 24.608 106.134 24.32C106.358 24.128 106.566 24.032 106.758 24.032C106.918 24.032 107.046 24.088 107.142 24.2C107.254 24.296 107.31 24.424 107.31 24.584C107.31 24.936 107.006 25.4 106.398 25.976C105.326 27 104.054 27.512 102.582 27.512ZM102.942 21.872C103.518 21.872 103.998 21.752 104.382 21.512C104.766 21.272 104.958 20.968 104.958 20.6C104.958 20.296 104.83 20.064 104.574 19.904C104.318 19.728 103.966 19.64 103.518 19.64C102.926 19.64 102.406 19.8 101.958 20.12C101.526 20.424 101.214 20.856 101.022 21.416C101.246 21.56 101.534 21.672 101.886 21.752C102.238 21.832 102.59 21.872 102.942 21.872Z" fill="white"/>
<defs>
<filter id="filter0_d_17_38" x="0" y="0" width="174" height="48" filterUnits="userSpaceOnUse" color-interpolation-filters="sRGB">
<feFlood flood-opacity="0" result="BackgroundImageFix"/>
<feColorMatrix in="SourceAlpha" type="matrix" values="0 0 0 0 0 0 0 0 0 0 0 0 0 0 0 0 0 0 127 0" result="hardAlpha"/>
<feOffset dy="4"/>
<feGaussianBlur stdDeviation="2"/>
<feColorMatrix type="matrix" values="0 0 0 0 0 0 0 0 0 0 0 0 0 0 0 0 0 0 0.25 0"/>
<feBlend mode="normal" in2="BackgroundImageFix" result="effect1_dropShadow_17_38"/>
<feBlend mode="normal" in="SourceGraphic" in2="effect1_dropShadow_17_38" result="shape"/>
</filter>
<linearGradient id="paint0_linear_17_38" x1="88.992" y1="40" x2="4.65814" y2="4.70734" gradientUnits="userSpaceOnUse">
<stop stop-color="#7158E2"/>
<stop offset="1" stop-color="#CD84F1"/>
</linearGradient>
</defs>
</svg>
